<svg xmlns="http://www.w3.org/2000/svg" viewBox="0 0 800 560" width="800" height="560">
  <defs>
    <linearGradient id="pc" x1="0" y1="0" x2="1" y2="1">
      <stop offset="0" stop-color="#211a36"/><stop offset="1" stop-color="#120d22"/>
    </linearGradient>
  </defs>
  <rect width="800" height="560" rx="18" fill="url(#pc)" stroke="#4a3570" stroke-width="4"/>
  <text x="400" y="70" text-anchor="middle" fill="#4be3ff" font-size="26" font-family="sans-serif" letter-spacing="2">FRAG MOVIE ｜ 謎のカード</text>
  <rect x="70" y="120" width="660" height="180" rx="8" fill="#0c0918" stroke="#33264d" stroke-width="3"/>
  <g fill="#0c0918"><rect x="70" y="120" width="660" height="20"/><rect x="70" y="280" width="660" height="20"/></g>
  <g fill="#2a2050">
    <rect x="86" y="124" width="14" height="12"/><rect x="126" y="124" width="14" height="12"/><rect x="166" y="124" width="14" height="12"/><rect x="206" y="124" width="14" height="12"/>
    <rect x="246" y="124" width="14" height="12"/><rect x="286" y="124" width="14" height="12"/><rect x="326" y="124" width="14" height="12"/><rect x="366" y="124" width="14" height="12"/>
    <rect x="406" y="124" width="14" height="12"/><rect x="446" y="124" width="14" height="12"/><rect x="486" y="124" width="14" height="12"/><rect x="526" y="124" width="14" height="12"/>
    <rect x="566" y="124" width="14" height="12"/><rect x="606" y="124" width="14" height="12"/><rect x="646" y="124" width="14" height="12"/><rect x="686" y="124" width="14" height="12"/>
  </g>
  <g font-family="sans-serif" font-weight="800">
    <rect x="110" y="160" width="120" height="100" fill="#171233"/><text x="170" y="222" text-anchor="middle" fill="#ff5d7a" font-size="46">A</text>
    <rect x="270" y="160" width="120" height="100" fill="#171233"/><text x="330" y="222" text-anchor="middle" fill="#ffd166" font-size="46">e</text>
    <rect x="430" y="160" width="120" height="100" fill="#171233"/><text x="490" y="222" text-anchor="middle" fill="#4be3ff" font-size="40">？</text>
    <rect x="590" y="160" width="120" height="100" fill="#171233"/><text x="650" y="222" text-anchor="middle" fill="#b46bff" font-size="40">？</text>
  </g>
  <text x="400" y="360" text-anchor="middle" fill="#ece7fa" font-size="22" font-family="sans-serif">「これは革命だ」と叫んだ、あの動画編集ソフト。</text>
  <text x="400" y="398" text-anchor="middle" fill="#a99fc9" font-size="17" font-family="sans-serif">頭文字は Ae。……名前をぜんぶ答えて。</text>
  <text x="400" y="480" text-anchor="middle" fill="#6d84b5" font-size="14" font-family="sans-serif">（空白・大文字小文字は気にしなくていい）</text>
</svg>
